<svg width="43" height="32" fill="none" xmlns="http://www.w3.org/2000/svg"><path d="M.515.91c-.68.716-.689 2.496-.013 3.195.15.158.394.158 10.094.158 9.588 0 9.945-.008 10.106-.158.68-.632.688-2.48.013-3.178C20.565.769 20.32.769 10.6.769 1.61.777.626.785.515.91zm.725 13.537c-.5.174-.832.465-1.04.915-.433.932-.083 1.921.832 2.346l.424.2h39.688l.425-.2c.94-.433 1.28-1.448.798-2.388-.241-.474-.582-.765-1.09-.907-.2-.05-7.055-.083-20.018-.083-15.9.008-19.778.025-20.02.117zm20.495 13.686c-.435.39-.64 1.447-.443 2.296.079.358.325.832.493.965.137.1 20.11.1 20.247 0 .167-.133.414-.607.493-.965.197-.849-.008-1.905-.443-2.296-.159-.15-.585-.159-10.174-.159-9.589 0-10.015.009-10.174.159z" fill="#fff"/></svg>