<svg width="22" height="17" fill="none" xmlns="http://www.w3.org/2000/svg"><path d="M18.422 1.71h-.035a17.021 17.021 0 00-4.184-1.3c-.035 0-.035-.035-.035-.035l-.035.035a7.73 7.73 0 00-.527 1.09 17.794 17.794 0 00-2.391-.176c-.809 0-1.582.07-2.356.176A7.73 7.73 0 008.332.41h-.07a17.02 17.02 0 00-4.184 1.3h-.035C1.371 5.72.633 9.622.984 13.489c0 0 0 .035.036.035 1.511 1.16 3.27 2.04 5.168 2.602h.07c.387-.563.738-1.125 1.054-1.723v-.035c0-.035-.035-.035-.035-.07-.562-.211-1.125-.457-1.617-.774-.035 0-.035 0-.035-.035s0-.035.035-.07c.106-.07.211-.14.317-.246h.07c3.375 1.547 7.031 1.547 10.371 0h.07c.106.105.211.176.317.246.035.035.035.035.035.07s0 .035-.035.035a9.738 9.738 0 01-1.617.774c-.036.035-.036.035-.036.07v.035c.317.598.668 1.16 1.055 1.723h.07a16.63 16.63 0 005.168-2.602c.035 0 .035-.035.035-.035.422-4.465-.738-8.332-3.058-11.777zM7.805 11.134c-1.02 0-1.864-.95-1.864-2.074 0-1.16.844-2.075 1.864-2.075 1.054 0 1.863.914 1.863 2.075 0 1.125-.844 2.074-1.863 2.074zm6.855 0c-1.02 0-1.828-.95-1.828-2.074 0-1.16.809-2.075 1.828-2.075 1.055 0 1.899.914 1.863 2.075 0 1.125-.808 2.074-1.863 2.074z" fill="#fff"/></svg>