<svg width="253" height="69" fill="none" xmlns="http://www.w3.org/2000/svg"><path d="M124.655 62.092h6.253v-1.115h-4.949v-3.925h4.657v-1.088h-4.657V52.52h4.949v-1.115h-6.253v10.687zm2.341-35.047c.692-1.9 1.198-3.292 1.517-4.204.453-1.089.772-1.924.985-2.456.372-.988.692-1.57.985-1.773.292-.202.984-.329 2.102-.38.372-.025.559-.126.559-.303 0-.178-.133-.279-.373-.279h-.293c-.638.025-1.596.025-2.847 0h-2.927c-.373 0-.559.101-.559.279 0 .177.186.278.585.278.719 0 1.145.025 1.331.076.479.127.745.405.745.886 0 .482-.346 1.57-1.011 3.242a99.702 99.702 0 00-1.437 3.823c-.905 2.355-1.544 4.027-1.943 5.014a150.665 150.665 0 01-1.277 3.191c-1.863-4.558-3.247-7.9-4.098-10.003 1.33-2.937 2.208-4.71 2.608-5.343.266-.582 1.277-.86 3.033-.835.373 0 .559-.101.559-.279 0-.228-.239-.329-.692-.304h-14.902c-.479 0-.692.102-.692.304 0 .178.133.279.373.304.878 0 1.437.101 1.703.33.266.227.612.86 1.038 1.924.186.43.292.76.372.962.346.861.612 1.494.825 1.9 1.038 2.658 1.73 4.481 2.102 5.52l-2.581 5.621-3.779-9.293c-1.117-2.811-1.916-4.938-2.474-6.356a.826.826 0 01-.08-.304c0-.203.213-.304.638-.304.799.025 1.171-.076 1.171-.279 0-.227-.159-.354-.479-.354H98.07c-.346 0-.505.101-.505.279 0 .202.319.329.958.329.638 0 1.064.025 1.303.101.4.101.666.355.852.785 1.703 3.9 3.087 7.242 4.178 10.053l4.497 11.193c.506 1.24.825 1.874.932 1.874.159 0 .292-.152.399-.481 1.091-2.938 2.847-6.939 5.295-11.927l1.251 2.886c1.171 2.71 2.076 4.989 2.688 6.812.479 1.393.745 2.178.851 2.406.107.228.213.33.373.33.133 0 .24-.153.319-.457.133-.506.852-2.481 2.129-5.875l1.81-4.81c.718-1.875 1.251-3.217 1.596-4.103zm-10.085-8.18c0-.43.612-.633 1.809-.633 1.171 0 1.783.304 1.783.937 0 .405-.612 1.773-1.809 4.153-1.198-2.38-1.783-3.874-1.783-4.456zM87 62.674h.905V17.599H87v45.075zm24.269-11.243h-3.433v10.686h3.114c1.889 0 3.326-.456 4.338-1.393 1.011-.937 1.516-2.279 1.516-4.051 0-1.647-.479-2.938-1.463-3.85-.958-.937-2.315-1.392-4.072-1.392zm2.981 8.508c-.772.734-1.943 1.089-3.513 1.089h-1.597v-8.534h1.89c1.437 0 2.528.355 3.273 1.064.745.709 1.091 1.747 1.091 3.14.027 1.443-.373 2.507-1.144 3.241zm26.744-17.7c1.543 0 2.847-.456 3.912-1.393.399-.33.585-.583.585-.785 0-.127-.053-.178-.186-.178-.08 0-.16.051-.293.178-.612.557-1.144.835-1.543.835-.586 0-.958-.48-1.065-1.468-.026-.178-.026-.861-.026-2.026V31.4c0-1.798-.399-3.064-1.224-3.798-1.012-.861-2.795-1.292-5.349-1.292-1.73 0-3.114.406-4.178 1.241-1.065.81-1.597 1.722-1.597 2.735 0 .633.24 1.165.692 1.57.452.405 1.038.608 1.756.608.559 0 1.038-.177 1.384-.507.346-.329.532-.76.532-1.291 0-.962-.452-1.469-1.33-1.545-.586-.05-.878-.177-.878-.43 0-.43.239-.861.745-1.292.479-.456 1.144-.658 1.942-.658 1.411 0 2.289.582 2.608 1.747l.027.177c.16.532.266 1.976.266 4.33v.735c-5.322.532-7.983 2.28-7.983 5.242 0 1.013.319 1.823.984 2.456.639.633 1.517.937 2.555.937 1.916 0 3.433-.962 4.55-2.887.16 1.038.453 1.773.905 2.178.479.355 1.198.583 2.209.583zm-3.22-6.382c0 1.671-.133 2.836-.399 3.545-.266.71-.745 1.064-1.411 1.064-1.17 0-1.783-.81-1.783-2.456 0-2.128 1.198-3.419 3.593-3.875v1.722zm17.776 26.235h6.254v-1.115h-4.95v-3.925h4.657v-1.088h-4.657V52.52h4.95v-1.115h-6.254v10.687zm84.836-24.665c-.133 0-.292.228-.479.659a5.531 5.531 0 01-1.836 2.177c-.798.557-1.623.836-2.501.836-1.038 0-1.916-.33-2.608-1.013-1.198-1.14-1.81-3.09-1.81-5.799 0-.582.027-1.291.107-2.127.931-.05 1.703-.076 2.315-.076 3.992-.025 6.253-.076 6.839-.152a16.33 16.33 0 00-.213-1.52c-.372-1.367-1.171-2.405-2.395-3.114-1.118-.658-2.448-.988-4.018-.988-2.315 0-4.231.76-5.801 2.305-1.544 1.545-2.316 3.444-2.316 5.748 0 2.33.799 4.254 2.395 5.748 1.597 1.494 3.646 2.254 6.121 2.254 2.209 0 4.018-.912 5.375-2.71.639-.835.958-1.519.958-2.025.027-.152-.026-.203-.133-.203zM233.92 26.69c.745 0 1.251.355 1.543 1.038.293.71.426 1.95.399 3.723h-4.523c.212-3.165 1.091-4.76 2.581-4.76zm-1.677 31.68c0 .885-.266 1.595-.771 2.076-.506.48-1.251.709-2.183.709-.984 0-1.756-.228-2.261-.71-.506-.48-.772-1.164-.772-2.05V51.43h-1.304v6.888c0 1.215.372 2.203 1.118 2.886.745.71 1.783 1.064 3.14 1.064 1.357 0 2.421-.355 3.193-1.038.772-.71 1.171-1.646 1.171-2.862v-6.913h-1.304v6.913h-.027zM224.1 37.426c-.133 0-.292.228-.479.659a5.531 5.531 0 01-1.836 2.177c-.798.557-1.623.836-2.501.836-1.038 0-1.916-.33-2.608-1.013-1.198-1.14-1.81-3.09-1.81-5.799 0-.582.027-1.291.107-2.127.931-.05 1.703-.076 2.315-.076 3.992-.025 6.254-.076 6.839-.152a16.33 16.33 0 00-.213-1.52c-.372-1.367-1.171-2.405-2.395-3.114-1.118-.658-2.448-.988-4.018-.988-2.315 0-4.231.76-5.801 2.305-1.544 1.545-2.316 3.444-2.316 5.748 0 2.33.799 4.254 2.395 5.748 1.597 1.494 3.646 2.254 6.121 2.254 2.209 0 4.018-.912 5.375-2.71.639-.835.958-1.519.958-2.025 0-.152-.053-.203-.133-.203zm-6.466-10.737c.745 0 1.251.355 1.543 1.038.293.71.426 1.95.399 3.723h-4.55c.239-3.165 1.118-4.76 2.608-4.76zm29.458 29.805v-.076c.719-.126 1.251-.38 1.624-.81.372-.405.558-.937.558-1.57 0-.912-.346-1.595-1.011-2-.665-.431-1.756-.634-3.22-.634h-3.166v10.687h3.911c1.225 0 2.156-.279 2.848-.81.665-.532 1.011-1.292 1.011-2.23 0-1.417-.852-2.278-2.555-2.557zm-3.911-4h1.915c.985 0 1.704.126 2.156.404.452.254.665.71.665 1.292 0 .658-.213 1.114-.612 1.393-.399.278-1.064.405-1.996.405h-2.155v-3.495h.027zm4.364 8.052c-.453.33-1.145.506-2.049.506h-2.342v-4h2.235c.958 0 1.677.151 2.129.455.479.304.692.81.692 1.469.027.709-.186 1.24-.665 1.57zM212.87 51.43h-1.303v10.686h6.253v-1.114h-4.95V51.43zm40.024-11.953c-.107 0-.346.152-.746.481-.825.71-1.49 1.064-2.022 1.064-1.171 0-1.863-.684-2.102-2.026-.107-1.063-.16-4.735-.16-10.965v-.734h.506c1.224 0 2.341 0 3.326-.025.319 0 .479-.178.479-.507 0-.152-.053-.228-.16-.228-.053 0-.106 0-.159.026-.426.1-1.145.152-2.182.152-1.012 0-1.624-.102-1.81-.279-.186-.177-.293-1.291-.266-3.292 0-.33-.08-.481-.213-.481s-.293.152-.506.481c-1.676 2.33-3.672 3.52-5.987 3.57-.266.051-.399.152-.399.28 0 .176.372.278 1.117.278.613 0 .985.025 1.118.101.133.076.186.304.186.734v5.698l.08.734c0 .482-.026.963-.08 1.418v1.697c0 1.266.027 2.051.054 2.355.026.304.186.633.425.988.612.911 1.916 1.367 3.859 1.367 2.129 0 3.805-.557 5.029-1.646.479-.43.719-.76.719-1.013 0-.152-.027-.228-.106-.228zm-51.812 12.89c.851 0 1.703.177 2.554.557l.559-1.064c-.878-.405-1.916-.608-3.087-.608-1.117 0-2.075.228-2.874.684a4.437 4.437 0 00-1.862 1.925c-.426.835-.639 1.798-.639 2.886 0 1.748.452 3.115 1.357 4.078.905.962 2.182 1.443 3.832 1.443 1.144 0 2.102-.127 2.874-.405v-1.09c-1.011.28-1.889.406-2.688.406-1.277 0-2.262-.38-2.953-1.14-.692-.76-1.038-1.848-1.038-3.24 0-1.368.346-2.432 1.064-3.217.692-.81 1.677-1.215 2.901-1.215zm-23.897 5.19c0 .305 0 .811.027 1.52.026.71.053 1.14.079 1.266h-.053l-6.12-8.939h-1.464v10.687h1.198v-6.078c0-.886-.054-1.849-.134-2.887h.054l6.147 8.965h1.49V51.405h-1.224v6.154zm-12.694-16.13h-1.117c-.506.026-.825-.101-.905-.38-.08-.278-.133-1.19-.133-2.785V17.194c-1.73.71-3.992 1.09-6.733 1.19-.638.026-.958.127-.958.33 0 .177.32.253.932.253.851 0 1.357.076 1.543.228.186.152.266.633.266 1.418v18.486c0 1.215-.079 1.924-.213 2.101-.133.177-.638.279-1.49.253h-.133a.859.859 0 00-.266-.025h-1.118c-.505.026-.825-.101-.904-.38-.08-.278-.133-1.19-.133-2.785V17.194c-1.73.71-3.992 1.09-6.733 1.19-.639.026-.958.127-.958.33 0 .177.319.253.931.253.852 0 1.358.076 1.544.228.186.152.266.633.266 1.418v18.486c0 1.215-.08 1.924-.213 2.101-.133.177-.639.279-1.49.253-.559-.025-.852.051-.852.254 0 .177.266.278.799.253l1.091-.025a103.82 103.82 0 013.007-.076c.559 0 1.144 0 1.729.025 1.145.05 1.837.076 2.049.076.293 0 .533 0 .746-.025.133.025.319.025.532.025l1.091-.025c1.463-.051 2.475-.076 3.007-.076.559 0 1.144 0 1.73.025 1.144.05 1.836.076 2.049.076.931 0 1.41-.076 1.41-.253.106-.203-.053-.279-.373-.279zm10.592-14.51c-2.156-1.14-3.619-2.102-4.391-2.836-.772-.734-1.144-1.595-1.144-2.558 0-1.088.399-1.975 1.224-2.608s1.916-.937 3.273-.937c.984 0 1.836.203 2.581.633.559.33 1.118.861 1.677 1.596a7.248 7.248 0 011.171 2.228c.212.76.452 1.114.665 1.114.186 0 .293-.101.293-.304 0-.126 0-.202-.027-.278-.107-.836-.16-1.874-.16-3.09 0-.354.027-.785.08-1.342.053-.532.08-.86.08-.987 0-.304-.133-.456-.373-.456-.159 0-.292.101-.319.304-.133.608-.373.911-.745.911-.186 0-.532-.1-.985-.278-1.41-.557-2.714-.836-3.938-.836-2.289 0-4.178.659-5.695 1.975-1.49 1.317-2.262 2.988-2.262 5.014 0 1.722.453 3.191 1.331 4.432.958 1.367 2.767 2.71 5.455 4.077 2.422 1.24 3.832 2.076 4.284 2.481.586.583.879 1.368.879 2.355 0 1.14-.453 2.128-1.358 2.913-.904.785-2.022 1.19-3.353 1.19-1.49 0-2.9-.507-4.204-1.545-1.198-.962-1.969-2.304-2.315-4.026-.187-1.013-.426-1.52-.666-1.52-.239 0-.372.178-.372.557 0 .152.026.608.08 1.393.026.405.026.937.026 1.62 0 .837-.053 1.57-.159 2.204-.133.785-.187 1.317-.187 1.62 0 .33.107.482.293.482.133 0 .213-.127.293-.38.213-.836.532-1.266.958-1.266.159 0 .319.025.505.101 2.635.962 4.711 1.443 6.201 1.443 2.448 0 4.47-.709 6.067-2.101 1.597-1.393 2.368-3.166 2.368-5.293 0-1.899-.638-3.47-1.889-4.71-.825-.76-2.581-1.9-5.242-3.292zm30.869-.608c-.879 0-1.597.228-2.156.684-.559.456-1.064 1.266-1.543 2.406V27.93c0-.608-.054-1.14-.187-1.62-2.182.76-4.231 1.114-6.12 1.114h-1.357c-.187 0-.293.076-.293.202 0 .127.053.203.133.228.08.025.452.05 1.091.101.825.076 1.331.254 1.57.558.24.303.346.86.346 1.646l.027 9.445c0 .86-.107 1.393-.32 1.57-.213.177-.825.279-1.836.304-.346 0-.505.076-.505.228 0 .152.133.228.399.228h9.66c.212 0 .319-.102.319-.279 0-.152-.133-.228-.399-.253-.533 0-1.012 0-1.411-.026-.665-.05-.984-.38-.984-1.012v-5.647c0-2.735.133-4.457.372-5.14.426-1.242 1.065-1.85 1.89-1.85.319 0 .479.102.479.304 0 .076-.027.152-.107.254-.319.405-.479.785-.479 1.19 0 1.165.665 1.747 1.996 1.747.665 0 1.198-.228 1.623-.658.426-.43.639-.988.639-1.672 0-.76-.266-1.367-.798-1.848-.533-.481-1.224-.735-2.049-.735zm-62.27 31.3h2.501V60.9a9.735 9.735 0 01-2.288.254c-1.437 0-2.529-.38-3.274-1.115-.745-.734-1.117-1.848-1.117-3.291 0-1.368.372-2.457 1.144-3.217.772-.784 1.836-1.164 3.193-1.164.932 0 1.916.202 2.928.607l.505-1.089c-1.038-.43-2.155-.633-3.353-.633-1.171 0-2.209.228-3.087.659-.878.43-1.543 1.089-2.022 1.924-.479.836-.692 1.798-.692 2.913 0 1.747.479 3.089 1.41 4.051.958.962 2.262 1.444 3.965 1.444.799 0 1.517-.051 2.129-.127a14.395 14.395 0 001.81-.405V56.52h-3.806v1.088h.054zm50.933-18.132c-.106 0-.346.152-.745.481-.825.71-1.49 1.064-2.022 1.064-1.171 0-1.863-.684-2.103-2.026-.106-1.063-.159-4.735-.159-10.965v-.734h.505c1.224 0 2.342 0 3.327-.025.319 0 .479-.178.479-.507 0-.152-.053-.228-.16-.228-.053 0-.106 0-.16.026-.425.1-1.144.152-2.182.152-1.011 0-1.623-.102-1.809-.279-.187-.177-.293-1.291-.266-3.292 0-.33-.08-.481-.213-.481s-.293.152-.506.481c-1.676 2.33-3.672 3.52-5.987 3.57-.266.051-.4.152-.4.28 0 .176.373.278 1.118.278.612 0 .985.025 1.118.101.133.076.186.304.186.734v5.698l.08.734c0 .482-.027.963-.08 1.418v1.697c0 1.266.027 2.051.053 2.355.027.304.187.633.426.988.612.911 1.916 1.367 3.859 1.367 2.129 0 3.805-.557 5.029-1.646.479-.43.719-.76.719-1.013 0-.152-.027-.228-.107-.228z" fill="#fff"/><path d="M66.404 15.143c0-2.693-.581-5.158-1.797-7.368C61.382 1.905 55.01.076 54.747 0l-1.745 2.871c.026.025 1.692 1.702 1.506 4.014a3.949 3.949 0 01-.184.94A33.279 33.279 0 0043.59 6.073c-17.817 0-32.277 13.822-32.41 30.947-3.488 1.372-6.66 1.93-8.828 1.169L0 40.144c.08.356 1.639 6.936 13.323 8.232 4.68 11.687 16.443 19.996 30.268 19.996 5.366 0 10.415-1.245 14.856-3.481 2.274-1.067 3.648-1.982 3.807-2.109l.053-.152C70.58 56.99 76 47.715 76 37.197c-.053-8.588-3.7-16.414-9.596-22.054zM43.538 9.528c3.093 0 6.054.483 8.83 1.346-.609.636-1.375 1.27-2.248 1.88-8.01 5.616-11.34 8.182-12.239 13.416-3.066-1.372-7.534-1.906-11.816 1.702-3.384 2.82-7.402 5.539-11.288 7.52 1.005-14.43 13.535-25.864 28.761-25.864zM17.262 48.605c2.194 0 4.652-.127 7.428-.483 6.08-.788 11.208-.762 15.253.102 1.005.203 1.903.457 2.67.736.053 7.216-3.252 13.593-4.362 15.524-9.358-1.676-17.156-7.749-20.99-15.88zm39.705 13.16c-3.199 1.5-8.538 3.355-14.75 2.872 1.427-2.795 3.595-7.927 3.938-13.847.873.686 1.19 1.194 1.19 1.22l-.027-.052 3.225-1.473c-.211-.407-2.194-4.015-9.833-5.615-4.468-.915-10.02-.966-16.496-.127-3.251.406-6 .533-8.3.432a27.138 27.138 0 01-3.833-.407c-3.41-.61-5.499-1.728-6.768-2.795 1.904-.101 3.94-.584 6.001-1.295 1.137-.407 2.3-.89 3.463-1.423 5.208-2.44 10.31-6.022 13.614-8.791 4.837-4.04 9.305-.432 9.807-.026l2.987-1.245c.106-5.564 1.771-7.165 11.024-13.644 1.506-1.067 2.722-2.16 3.648-3.328.793-.99 1.348-1.982 1.718-3.023.238-.661.37-1.322.423-2.008a8.293 8.293 0 00-.026-1.626c1.268.94 2.537 2.21 3.462 3.888.423.787.767 1.626.979 2.515.37 1.423.475 2.973.317 4.65-.132 1.524-.502 3.125-1.084 4.827-.899 2.591-1.745 4.853-2.485 6.86-3.939 10.468-5.816 15.397-.159 32.344-.66.355-1.348.762-2.035 1.118zm5.075-3.302c-4.837-14.915-3.225-19.26.476-29.041.767-2.033 1.64-4.32 2.538-6.962.317-.965.582-1.88.793-2.795 4.071 4.777 6.53 10.9 6.53 17.557 0 8.537-4.019 16.16-10.337 21.24z" fill="url(#paint0_linear_90_1044)"/><defs><linearGradient id="paint0_linear_90_1044" x1="16.949" y1="64.674" x2="65.095" y2="10.897" gradientUnits="userSpaceOnUse"><stop stop-color="#9A611C"/><stop offset=".294" stop-color="#BD8933"/><stop offset=".495" stop-color="#EBE39B"/><stop offset=".696" stop-color="#B9913C"/><stop offset=".776" stop-color="#A57428"/><stop offset=".887" stop-color="#E2AD3D"/><stop offset="1" stop-color="#9D621E"/></linearGradient></defs></svg>