<svg width="20" height="20" fill="none" xmlns="http://www.w3.org/2000/svg"><path d="M20 9.56c0 5.277-4.48 9.56-10 9.56S0 14.837 0 9.56 4.48 0 10 0s10 4.283 10 9.56z" fill="#fff"/><path d="M4.94 9.885l.04-.057 2.6-3.882c.04-.057.12-.057.16.02.44.936.8 2.084.64 2.81-.08.306-.28.708-.52 1.071a.414.414 0 01-.1.153c-.02.02-.04.038-.08.038H5c-.06-.019-.1-.095-.06-.153z" fill="#000"/><path d="M16.52 10.612v.612c0 .038-.02.057-.06.076-.2.077-.9.382-1.18.765-.74.975-1.3 2.37-2.54 2.37H7.52c-1.84 0-3.34-1.433-3.34-3.211v-.058c0-.038.04-.076.08-.076H7.2c.06 0 .1.057.1.095-.02.172.02.364.1.536.18.344.54.535.92.535h1.44v-1.07H8.34c-.08 0-.12-.077-.08-.134.02-.02.04-.039.06-.077.14-.191.32-.459.52-.784.14-.21.26-.459.36-.688a.92.92 0 00.06-.134c.02-.077.06-.153.08-.21l.06-.172c.04-.192.06-.402.06-.631 0-.077 0-.173-.02-.268 0-.096-.02-.191-.02-.287 0-.076-.02-.172-.04-.248a2.603 2.603 0 00-.08-.383l-.02-.038c-.02-.077-.04-.172-.08-.249a6.924 6.924 0 00-.28-.765l-.12-.286c-.06-.134-.12-.268-.18-.383-.02-.057-.06-.095-.08-.153-.02-.057-.06-.114-.08-.172L8.4 5.01l-.18-.306c-.02-.039.02-.096.06-.077l1.1.287.14.038.16.038.06.02v-.631a.572.572 0 01.96-.402c.1.096.16.23.16.382v.918l.12.038s.02 0 .02.02c.02.019.06.057.12.095.04.038.08.077.14.115.1.076.24.191.38.306.04.038.08.057.1.095.18.153.38.345.58.555.06.057.1.115.16.172.06.057.1.134.16.191.06.077.14.172.2.249.02.038.06.076.08.134.08.114.14.229.22.344.02.057.06.114.08.172.08.153.14.306.16.478a.2.2 0 01.02.095c.02.039.02.096.02.153.02.173 0 .325-.02.498-.02.076-.04.133-.06.21-.02.057-.04.134-.08.21-.06.134-.14.268-.22.402-.02.038-.06.095-.1.153-.04.057-.08.095-.1.153-.04.057-.1.114-.14.172-.04.057-.08.114-.14.172-.06.076-.14.153-.2.23-.04.037-.08.095-.14.133-.04.038-.08.096-.14.134-.06.057-.12.115-.18.153l-.12.095c-.02.02-.04.02-.06.02h-.88v1.07h1.1c.24 0 .48-.076.66-.23.06-.056.34-.286.68-.63.02-.02.02-.02.04-.02l3.04-.84c.12-.058.16-.02.16.038z" fill="#000"/></svg>