<svg width="80" height="76" fill="none" xmlns="http://www.w3.org/2000/svg"><rect width="80" height="76" rx="20" fill="#C4C4C4" fill-opacity=".19"/><path d="M23.746 21.137c-.137.072-.31.209-.383.31-.166.223-2.11 7.405-2.255 8.341-.144.944-.144 4.02 0 4.718.275 1.297 1.222 2.529 2.414 3.12.333.165.643.302.701.302.08 0 .101 1.138.123 6.713.022 7.405 0 6.973.477 7.946.564 1.123 1.792 2.074 3.028 2.333.274.058 3.656.08 11.67.08 12.575 0 11.73.029 12.77-.512.997-.511 1.77-1.433 2.154-2.542l.195-.584.021-6.72c.015-5.576.036-6.714.116-6.714.058 0 .368-.137.7-.303 1.193-.59 2.14-1.822 2.415-3.119.144-.699.144-3.774 0-4.718-.145-.936-2.089-8.118-2.255-8.341a1.287 1.287 0 00-.383-.31c-.239-.13-.802-.137-15.754-.137s-15.515.007-15.754.137zm30.785 4.797c.383 1.426.723 2.68.752 2.788l.043.202H39.5c-8.7 0-15.826-.008-15.826-.022 0-.036 1.445-5.417 1.481-5.51.022-.072 2.934-.087 14.36-.072l14.322.021.694 2.593zm-26.608 6.75c-.022 1.383-.029 1.484-.202 1.822a2.63 2.63 0 01-1.12 1.124c-.52.252-1.431.252-1.952 0a2.63 2.63 0 01-1.12-1.124c-.173-.338-.18-.44-.202-1.822l-.022-1.455h4.64l-.022 1.455zm6.938 0c-.022 1.383-.03 1.484-.203 1.822a2.63 2.63 0 01-1.12 1.124c-.52.252-1.43.252-1.951 0a2.63 2.63 0 01-1.12-1.124c-.174-.338-.18-.44-.202-1.822l-.022-1.455h4.64l-.023 1.455zm6.937 0c-.022 1.383-.029 1.484-.202 1.822a2.63 2.63 0 01-1.12 1.124c-.52.252-1.431.252-1.952 0a2.63 2.63 0 01-1.12-1.124c-.173-.338-.18-.44-.202-1.822l-.022-1.455h4.64l-.022 1.455zm6.938 0c-.022 1.383-.03 1.484-.203 1.822a2.63 2.63 0 01-1.12 1.124c-.52.252-1.43.252-1.951 0a2.63 2.63 0 01-1.12-1.124c-.174-.338-.18-.44-.203-1.822l-.021-1.455h4.64l-.023 1.455zm6.937 0c-.022 1.383-.029 1.484-.202 1.822a2.63 2.63 0 01-1.12 1.124c-.52.252-1.431.252-1.952 0a2.63 2.63 0 01-1.12-1.124c-.173-.338-.18-.44-.202-1.822l-.022-1.455h4.64l-.022 1.455zM29.506 36.99c1.72 1.52 4.393 1.52 6.12-.007l.405-.367.405.367c1.727 1.527 4.4 1.527 6.128 0l.405-.367.404.367c1.728 1.527 4.401 1.527 6.129 0l.404-.367.405.36c.44.396 1.048.742 1.64.944l.376.13v13.023l-.173.382a2.345 2.345 0 01-.52.691c-.608.548-.615.548-4.163.548h-3.13v-4.236c0-3.342-.02-4.308-.1-4.596-.347-1.303-1.504-2.37-2.826-2.614-.55-.101-3.274-.101-3.837 0-1.301.23-2.472 1.318-2.819 2.622-.08.28-.1 1.289-.1 4.588v4.236h-3.13c-3.548 0-3.555 0-4.162-.548a2.324 2.324 0 01-.52-.691l-.174-.382V38.05l.376-.13a4.938 4.938 0 001.626-.929c.21-.194.397-.353.404-.36.015 0 .21.159.427.36zm11.714 6.591c.145.065.34.188.434.274.382.353.375.238.375 4.697v4.142H36.97v-4.142c0-4.46-.006-4.344.377-4.697.36-.338.578-.374 2.139-.382 1.163 0 1.517.022 1.734.108z" fill="#F3C436"/></svg>